<svg height="512pt" viewBox="0 -43 512 512" width="512pt" xmlns="http://www.w3.org/2000/svg"><path d="m458.667969 0h-362.667969c-29.417969 0-53.332031 23.914062-53.332031 53.332031v11.734375c-24.320313 4.949219-42.667969 26.519532-42.667969 52.265625v256c0 29.421875 13.695312 53.335938 43.113281 53.335938h415.554688c29.417969 0 53.332031-23.914063 53.332031-53.335938v-320c0-29.417969-23.914062-53.332031-53.332031-53.332031zm0 0" fill="#eceff1"/><path d="m42.667969 65.066406c-24.320313 4.949219-42.667969 26.519532-42.667969 52.265625v245.335938c0 29.417969 13.695312 53.332031 43.113281 53.332031zm0 0" fill="#b0bec5"/><path d="m266.667969 213.332031h-170.667969c-5.886719 0-10.667969 4.78125-10.667969 10.667969v128c0 5.886719 4.78125 10.667969 10.667969 10.667969h170.667969c5.886719 0 10.664062-4.78125 10.664062-10.667969v-128c0-5.886719-4.777343-10.667969-10.664062-10.667969zm0 0" fill="#2196f3"/><path d="m458.667969 426.667969h-405.335938c-5.886719 0-10.664062-4.78125-10.664062-10.667969s4.777343-10.667969 10.664062-10.667969h405.335938c17.640625 0 32-14.355469 32-32v-320c0-17.640625-14.359375-32-32-32h-362.667969c-17.644531 0-32 14.359375-32 32v320c0 5.890625-4.777344 10.667969-10.667969 10.667969-5.886719 0-10.664062-4.777344-10.664062-10.667969v-320c0-29.417969 23.914062-53.332031 53.332031-53.332031h362.667969c29.417969 0 53.332031 23.914062 53.332031 53.332031v320c0 29.421875-23.914062 53.335938-53.332031 53.335938zm0 0"/><path d="m96 426.667969h-42.667969c-29.417969 0-53.332031-23.914063-53.332031-53.335938v-256c0-29.417969 23.914062-53.332031 53.332031-53.332031 5.890625 0 10.667969 4.777344 10.667969 10.667969 0 5.886719-4.777344 10.664062-10.667969 10.664062-17.640625 0-32 14.359375-32 32v256c0 17.644531 14.359375 32 32 32h42.667969c5.886719 0 10.667969 4.78125 10.667969 10.667969s-4.78125 10.667969-10.667969 10.667969zm0 0"/><path d="m160 170.667969c-3.285156 0-6.484375-1.515625-8.535156-4.269531l-44.796875-59.730469v53.332031c0 5.886719-4.78125 10.667969-10.667969 10.667969s-10.667969-4.78125-10.667969-10.667969v-85.332031c0-4.589844 2.945313-8.664063 7.296875-10.132813 4.332032-1.386718 9.152344.039063 11.90625 3.730469l44.796875 59.734375v-53.332031c0-5.890625 4.78125-10.667969 10.667969-10.667969s10.667969 4.777344 10.667969 10.667969v85.332031c0 4.585938-2.945313 8.660156-7.296875 10.132812-1.109375.34375-2.242188.535157-3.371094.535157zm0 0"/><path d="m245.332031 170.667969h-42.664062c-5.890625 0-10.667969-4.78125-10.667969-10.667969v-85.332031c0-5.890625 4.777344-10.667969 10.667969-10.667969h42.664062c5.890625 0 10.667969 4.777344 10.667969 10.667969 0 5.886719-4.777344 10.664062-10.667969 10.664062h-32v64h32c5.890625 0 10.667969 4.78125 10.667969 10.667969s-4.777344 10.667969-10.667969 10.667969zm0 0"/><path d="m234.667969 128h-32c-5.890625 0-10.667969-4.777344-10.667969-10.667969 0-5.886719 4.777344-10.664062 10.667969-10.664062h32c5.886719 0 10.664062 4.777343 10.664062 10.664062 0 5.890625-4.777343 10.667969-10.664062 10.667969zm0 0"/><path d="m341.332031 170.667969c-4.585937 0-8.660156-2.925781-10.132812-7.296875l-11.199219-33.644532-11.199219 33.644532c-1.492187 4.5-4.972656 7.382812-10.539062 7.296875-4.738281-.191407-8.789063-3.480469-9.941407-8.085938l-21.332031-85.335937c-1.410156-5.714844 2.046875-11.496094 7.765625-12.925782 5.585938-1.410156 11.496094 2.046876 12.925782 7.765626l12.4375 49.792968 9.75-29.25c2.921874-8.703125 17.320312-8.703125 20.246093 0l9.75 29.25 12.433594-49.792968c1.410156-5.738282 7.167969-9.175782 12.929687-7.765626 5.738282 1.429688 9.195313 7.230469 7.765626 12.925782l-21.332032 85.335937c-1.109375 4.605469-5.183594 7.894531-9.898437 8.085938-.152344 0-.300781 0-.429688 0zm0 0"/><path d="m426.644531 170.667969c-22.65625 0-40.980469-12.757813-42.601562-29.632813-.554688-5.867187 3.753906-11.09375 9.601562-11.648437 5.84375-.339844 11.089844 3.734375 11.644531 9.601562.40625 4.328125 8.726563 10.34375 21.355469 10.34375 12.84375 0 21.355469-6.421875 21.355469-10.664062 0-3.179688-3.710938-7.597657-21.441406-10.539063l-3.132813-.535156c-26.179687-4.265625-39.425781-14.890625-39.425781-31.59375 0-17.941406 18.753906-32 42.6875-32 22.65625 0 40.980469 12.734375 42.601562 29.609375.554688 5.867187-3.753906 11.09375-9.597656 11.648437-5.71875.386719-11.074218-3.710937-11.648437-9.597656-.40625-4.332031-8.726563-10.328125-21.355469-10.328125-12.84375 0-21.355469 6.421875-21.355469 10.667969 0 2.625 2.796875 7.507812 21.503907 10.539062.023437 0 3.203124.53125 3.203124.53125 26.066407 4.3125 39.292969 14.933594 39.292969 31.597657 0 17.941406-18.75 32-42.6875 32zm0 0"/><path d="m266.667969 362.667969h-170.667969c-5.886719 0-10.667969-4.78125-10.667969-10.667969v-128c0-5.886719 4.78125-10.667969 10.667969-10.667969h170.667969c5.886719 0 10.664062 4.78125 10.664062 10.667969v128c0 5.886719-4.777343 10.667969-10.664062 10.667969zm-160-21.335938h149.332031v-106.664062h-149.332031zm0 0"/><path d="m458.667969 234.667969h-149.335938c-5.886719 0-10.664062-4.78125-10.664062-10.667969s4.777343-10.667969 10.664062-10.667969h149.335938c5.886719 0 10.664062 4.78125 10.664062 10.667969s-4.777343 10.667969-10.664062 10.667969zm0 0"/><path d="m458.667969 298.667969h-149.335938c-5.886719 0-10.664062-4.78125-10.664062-10.667969s4.777343-10.667969 10.664062-10.667969h149.335938c5.886719 0 10.664062 4.78125 10.664062 10.667969s-4.777343 10.667969-10.664062 10.667969zm0 0"/><path d="m469.332031 362.667969h-160c-5.886719 0-10.664062-4.78125-10.664062-10.667969s4.777343-10.667969 10.664062-10.667969h160c5.890625 0 10.667969 4.78125 10.667969 10.667969s-4.777344 10.667969-10.667969 10.667969zm0 0"/></svg>